HIERARCHY
ROOT joint_0
{
	OFFSET 0.000000 0.000000 0.000000
	CHANNELS 6 Xposition Yposition Zposition Zrotation Yrotation Xrotation 
	JOINT joint_1
	{
		OFFSET 1.363060 -1.794630 0.839290
		CHANNELS 3 Zrotation Yrotation Xrotation
		JOINT joint_2
		{
			OFFSET 2.448110 -6.726130 0.000000
			CHANNELS 3 Zrotation Yrotation Xrotation
			JOINT joint_3
			{
				OFFSET 2.562200 -7.039590 0.000000
				CHANNELS 3 Zrotation Yrotation Xrotation
				JOINT joint_4
				{
					OFFSET 0.157640 -0.433110 2.322550
					CHANNELS 3 Zrotation Yrotation Xrotation
					End Site
					{
						OFFSET 0.000000 0.000000 0.000000
					}
				}
			}
		}
	}
	JOINT joint_5
	{
		OFFSET -1.305520 -1.794630 0.839290
		CHANNELS 3 Zrotation Yrotation Xrotation
		JOINT joint_6
		{
			OFFSET -2.542530 -6.985550 0.000000
			CHANNELS 3 Zrotation Yrotation Xrotation
			JOINT joint_7
			{
				OFFSET -2.568260 -7.056230 0.000000
				CHANNELS 3 Zrotation Yrotation Xrotation
				JOINT joint_8
				{
					OFFSET -0.164730 -0.452590 2.363150
					CHANNELS 3 Zrotation Yrotation Xrotation
					End Site
					{
						OFFSET 0.000000 0.000000 0.000000
					}
				}
			}
		}
	}
	JOINT joint_9
	{
		OFFSET 0.028270 2.035590 -0.193380
		CHANNELS 3 Zrotation Yrotation Xrotation
		JOINT joint_10
		{
			OFFSET 0.056720 2.048850 -0.042750
			CHANNELS 3 Zrotation Yrotation Xrotation
			JOINT joint_11
			{
				OFFSET -0.054170 1.746240 0.172020
				CHANNELS 3 Zrotation Yrotation Xrotation
				JOINT joint_12
				{
					OFFSET 0.104070 1.761360 -0.123970
					CHANNELS 3 Zrotation Yrotation Xrotation
					End Site
					{
						OFFSET 0.000000 0.000000 0.000000
					}
				}
			}
			JOINT joint_13
			{
				OFFSET 3.362410 1.200890 -0.311210
				CHANNELS 3 Zrotation Yrotation Xrotation
				JOINT joint_14
				{
					OFFSET 4.983000 -0.000000 -0.000000
					CHANNELS 3 Zrotation Yrotation Xrotation
					JOINT joint_15
					{
						OFFSET 3.483560 -0.000000 -0.000000
						CHANNELS 3 Zrotation Yrotation Xrotation
						JOINT joint_16
						{
							OFFSET 0.000000 0.000000 0.000000
							CHANNELS 3 Zrotation Yrotation Xrotation
							End Site
							{
								OFFSET 0.000000 0.000000 0.000000
							}
						}
					}
				}
			}
			JOINT joint_17
			{
				OFFSET -3.136600 1.374050 -0.404650
				CHANNELS 3 Zrotation Yrotation Xrotation
				JOINT joint_18
				{
					OFFSET -5.241900 -0.000000 -0.000000
					CHANNELS 3 Zrotation Yrotation Xrotation
					JOINT joint_19
					{
						OFFSET -3.444170 -0.000000 -0.000000
						CHANNELS 3 Zrotation Yrotation Xrotation
						JOINT joint_20
						{
							OFFSET 0.000000 0.000000 0.000000
							CHANNELS 3 Zrotation Yrotation Xrotation
							End Site
							{
								OFFSET 0.000000 0.000000 0.000000
							}
						}
					}
				}
			}
		}
	}
}
MOTION
Frames: 17
Frame Time: 0.031667
-9.504039 13.213994 1.398569 -12.802456 78.930977 -3.364663 7.049592 44.070131 -8.896929 -5.731111 -37.914395 -14.017433 29.885647 -14.459502 -46.203399 3.259202 12.204018 30.403406 -55.185619 4.197502 -21.451428 12.661701 -1.236459 64.214511 -23.560820 -40.507079 -10.264879 -5.371036 -2.072392 47.483121 -37.315061 -37.034730 79.557240 6.970670 5.369480 -16.179379 35.705919 44.707229 -27.342393 -3.947745 -9.363479 21.574355 40.453502 32.396913 122.015659 28.216504 -8.169341 -36.980115 24.057775 19.732120 -62.940616 -21.298516 0.124325 0.177172 -17.946723 14.630460 -5.460174 -6.860545 -21.340793 -14.737392 19.753052 2.521472 16.704510 23.114578 -0.383752 -0.265721 
-9.044865 13.234505 1.380784 -15.252708 78.662460 -5.019760 8.606866 35.203917 -35.865170 11.964597 3.270205 18.527478 -9.028854 -47.808137 -3.588028 2.717672 -9.501683 -32.333491 20.242749 4.315535 32.870088 -31.020168 -1.401022 66.823661 -16.830355 -66.977024 0.012185 -4.686082 -1.294989 44.979209 -32.096083 -19.619100 121.754614 14.563617 -27.438731 -14.947657 15.925487 -20.089939 20.590097 -1.202759 -6.281642 22.116396 -2.778253 28.678920 54.072924 48.127045 -2.364155 -53.391292 3.255792 -15.627465 -24.179097 -21.405767 0.136746 0.175368 -4.879610 1.889118 0.648481 -2.883774 -4.238132 -3.468740 52.792084 24.955168 39.619740 23.292892 -0.383715 -0.264426 
-8.582102 13.253814 1.375227 -16.009581 78.725639 -5.274573 0.672146 50.392034 -27.871916 -0.756973 12.283605 -0.811000 -23.599060 -48.017030 12.020605 3.437106 12.798988 30.143980 -29.492590 21.722002 19.513220 -14.476828 -4.022807 56.448885 -27.548207 -72.410638 17.334542 -2.824994 9.777566 44.561741 -42.318926 7.934841 68.780774 9.510456 -16.738974 -1.139706 10.969069 -0.170630 -0.668835 0.946643 -7.737053 18.092092 67.618243 52.306777 121.128470 35.206392 -27.913102 -52.570903 5.993663 -3.290870 -8.863110 -21.684258 0.161291 0.198024 -36.138365 9.485893 -16.657611 -10.903147 -24.808995 -5.904206 57.503183 33.627629 21.087350 23.647107 -0.393494 -0.253588 
-8.108243 13.300405 1.390545 -14.743326 79.047958 -3.570675 7.241623 29.790976 -31.180716 -7.997550 -18.610127 -4.182190 -1.426417 -29.292777 9.429596 2.027472 -6.865144 -34.418429 24.843528 -12.669362 32.852439 -3.679391 -1.288491 57.034711 23.646748 -55.515158 -7.205003 -7.543233 16.323944 -44.774617 -17.353183 33.778442 78.757747 -1.311282 2.541230 -2.138484 13.404007 -2.290391 32.281612 -0.698655 -4.976493 13.161375 3.767276 35.645354 35.986321 30.854928 -13.560416 -55.957202 44.544062 2.506156 -16.984073 -21.888913 0.146974 0.188073 -7.046421 3.415681 0.238140 4.380863 3.426264 2.921914 16.758914 14.488079 -11.189632 23.831681 -0.397484 -0.254364 
-7.625435 13.354099 1.398971 -12.545284 79.557106 -1.045868 1.644382 26.926056 -29.921685 3.357755 17.366632 3.032772 11.694977 -38.174073 -5.196190 3.394056 12.669382 30.457424 -44.771007 22.755557 19.689811 14.760827 23.424393 63.452264 -2.627085 -58.111652 -41.931877 -14.740745 27.727245 -32.496934 26.602412 7.361442 91.848330 -1.422450 -3.660752 1.610209 -2.482828 -0.062863 -0.839334 -0.965425 -11.770583 20.074547 18.505429 53.700359 70.350481 32.370073 10.285759 -61.449310 3.604202 -4.317779 4.063058 -22.016381 0.130916 0.198414 -17.685032 6.023312 -8.546537 -5.316531 -11.701643 -12.685919 13.343036 22.115323 -8.997769 24.032751 -0.403258 -0.257351 
-7.136471 13.432327 1.396847 -12.834898 80.075310 -0.522212 6.214962 7.952243 -8.982008 11.901959 1.294562 16.030122 -3.817621 -34.522761 5.889359 3.203327 18.328588 20.053617 -32.275445 13.838479 -28.342075 -33.936807 13.470570 54.174448 3.637030 -64.238471 -38.684126 -3.038790 -8.199452 31.783500 29.137724 -12.778104 114.095263 0.823233 -2.643242 -9.213670 20.398727 -11.647961 13.763788 3.587173 -26.759539 26.322476 8.035871 44.303641 90.469040 40.664948 3.940440 -74.664015 -7.650324 3.339056 -5.624530 -22.312520 0.167823 0.216550 -30.583191 6.490516 -2.709213 -17.227017 -11.367490 -20.140065 -119.612890 77.952367 -98.214712 24.414748 -0.399955 -0.234433 
-6.670526 13.501952 1.377144 -15.472880 80.590347 -2.654320 -19.979034 26.760848 -31.482287 13.337927 -10.780643 11.967304 13.711473 -30.562811 9.689031 2.645484 12.101717 25.201851 -1.362347 -9.810794 38.661803 -5.367778 9.805238 32.038995 22.144018 -37.825535 -73.834396 -5.752988 15.074506 -28.120899 -87.255649 44.325269 34.973064 -0.855582 -2.412850 2.895514 5.904049 -4.559802 5.148982 3.030607 -28.211192 19.425724 111.355010 -14.846030 144.924722 39.001063 24.786599 -39.579208 71.724936 0.047772 -11.646335 -22.608468 0.140883 0.196833 -28.241097 11.226741 -17.060064 -13.881630 -3.021864 -7.641539 20.978411 42.547514 -8.624305 24.765211 -0.406903 -0.263097 
-6.211817 13.555721 1.369746 -18.887506 81.359276 -5.776923 5.622962 49.887277 -19.869800 12.106061 -6.750489 10.852990 7.228261 -16.790496 9.421905 0.117074 -1.487218 -26.804219 -34.917187 12.023318 44.436347 10.911967 -7.806521 55.326319 2.005331 -27.586595 -48.851399 -2.572351 -6.404682 27.509385 -113.379984 41.364838 15.325850 -0.114378 13.428378 5.773745 30.534965 -36.942728 2.559224 5.016379 -25.296593 24.998922 93.265454 -2.645550 113.740578 27.967637 -11.380441 -68.140441 -2.224887 0.821395 3.642103 -23.055849 0.129830 0.204153 -39.235059 12.483480 -29.696715 -12.283757 -7.568004 -7.647419 69.027322 26.794968 25.910558 25.258919 -0.415066 -0.272805 
-5.754084 13.606577 1.388607 -22.488663 82.385277 -9.056768 -13.900459 65.261192 -25.726417 -4.785408 17.378648 -2.211612 -6.676642 -16.853597 30.945796 3.200886 -10.186391 -35.332150 -53.139385 -50.064265 59.107947 -13.911031 -13.501278 47.500481 38.522611 -44.495984 -76.553785 -2.756503 10.106815 -23.705836 -27.208504 69.851367 77.801063 36.024472 -21.908558 -23.988426 30.830109 -27.725553 -9.867458 9.865910 -25.109105 35.716893 39.501228 -4.999197 102.764966 15.761441 4.641903 -54.485399 17.391353 6.283248 -21.434892 -23.595036 0.145712 0.237978 -26.385379 3.318241 -13.280757 0.620102 0.718574 0.611713 32.641876 28.261369 -7.650169 25.885365 -0.430313 -0.284756 
-5.301321 13.663393 1.430833 -25.437986 83.286415 -11.655134 9.507247 5.857177 -2.901322 -0.705814 -1.293386 -0.222686 -6.893515 -18.423401 30.916604 -8.694277 21.310608 -37.728750 7.991087 43.237521 36.620458 -3.527738 8.487136 53.855022 -54.896972 -71.069539 22.617606 -1.864799 -6.175289 23.051836 -78.635059 40.170603 85.327401 15.464935 -4.208165 -15.514194 55.452422 -13.415840 -31.801565 11.382248 -24.173287 43.914655 88.466841 -15.552170 -177.899486 67.438484 5.325292 -34.193958 0.187910 -2.297030 -1.760524 -24.100053 0.136760 0.237344 -27.536773 0.374410 -14.165546 -10.922027 -15.690194 -9.427897 6.690434 24.522275 0.116031 26.429831 -0.435526 -0.291892 
-4.854264 13.730706 1.477207 -27.362179 84.278252 -13.071217 9.246908 55.190769 -33.965070 6.909151 -9.659757 5.099603 55.411657 28.429085 20.226130 7.959178 32.082678 31.505681 -10.253917 6.588542 54.824355 -8.109736 -15.047158 50.556784 -24.126693 -35.184677 67.561527 -4.368781 2.231629 30.516876 27.275834 17.667767 143.862788 14.126983 -6.401686 -22.404973 71.693253 13.122427 13.076644 2.601455 -12.341445 55.559467 98.430470 14.591544 170.155258 30.790760 32.326990 -56.947932 26.959158 10.614548 -57.921350 -24.451126 0.089983 0.217721 -8.528823 6.865088 -4.969343 -15.624104 -18.540602 -32.628197 21.196669 50.044198 -6.150162 26.834033 -0.445444 -0.299193 
-4.434174 13.791907 1.522553 -32.812950 85.215744 -18.129774 17.351721 30.388560 -24.952022 -2.135281 1.179230 -2.847572 21.246912 -11.785728 -42.198354 4.387587 13.958782 35.581485 53.163070 -59.456007 -52.899027 -19.255673 -32.637587 75.561110 -22.198263 -55.524959 55.824770 -4.262317 12.147650 -28.564796 96.477516 27.453156 142.026578 4.974267 -18.147268 -19.551544 31.577783 -24.743508 17.225373 0.802232 -7.691310 57.373570 64.007509 -24.168301 -179.059647 9.298574 7.846339 -70.174772 -8.435640 -4.301143 -15.838563 -24.700697 0.098073 0.215257 -42.763989 6.784968 -2.892401 -17.743606 -18.933577 -8.298369 18.045379 22.608741 -7.620825 27.131792 -0.442614 -0.296902 
-4.034414 13.848228 1.565736 -39.149872 85.516022 -24.179087 -17.514865 33.134199 -30.822652 3.291568 -4.011595 5.595776 22.487264 -35.218672 -51.324618 -8.706597 19.223585 -39.619183 -58.768944 -2.765815 -42.405208 -10.245385 -6.839740 73.090253 101.138926 -78.317925 -96.336958 -4.788434 12.992068 -31.760522 -17.109715 23.222020 116.642817 23.199541 -14.536817 -6.853285 32.424350 31.240880 -20.580493 -0.331834 -9.286579 58.297210 64.768172 16.713251 175.487688 19.488477 21.655527 -57.654192 16.785006 16.325399 -32.627199 -24.779101 0.095113 0.214746 -43.545206 7.648100 -18.648828 -1.604438 -2.970190 -3.224513 58.132744 43.511644 -9.934613 27.133289 -0.437103 -0.296067 
-3.661366 13.910210 1.598949 -50.529392 85.616112 -35.274521 -1.746714 28.199019 -37.030623 -2.866451 -8.719121 7.367910 -1.090180 -35.918083 -26.562679 6.838117 18.336578 40.961269 -19.231797 30.223557 -23.946741 -8.299256 -2.625166 51.106269 10.163055 -44.965571 -59.072917 -6.392839 15.512984 -36.452348 -38.418705 -35.295882 82.572350 26.253209 -21.098011 -24.316076 16.685293 -46.995555 17.625265 0.164140 -25.876963 58.747707 68.516508 6.276302 179.416334 52.590840 4.107988 -39.077647 3.260295 8.278677 -14.424566 -24.872478 0.140205 0.242150 -3.832191 0.418234 -0.077450 -7.622545 -11.718610 -1.957611 20.051008 29.465214 8.943408 27.223235 -0.417919 -0.260697 
-3.304685 13.968498 1.626381 -61.906971 85.509636 -46.461094 12.266228 27.796669 -29.965686 -16.354026 -18.069355 2.858522 13.251807 -47.875925 -16.490289 9.794965 38.690844 26.617288 -31.169513 24.000406 47.889635 -20.689641 -8.421821 45.134291 3.765855 -64.594856 -51.420426 -8.148372 17.627519 -42.455875 -29.610355 -1.178197 61.733914 -18.718761 -27.186268 -27.868271 45.480131 1.846941 43.797333 7.991814 -44.979593 52.775698 45.683400 -37.339199 173.668652 10.692927 23.399609 -84.165092 -0.018670 -10.608088 -9.789368 -24.512514 0.162248 0.276253 -13.745797 1.138358 -6.032077 -13.303344 -53.021714 -18.788471 20.718508 39.741243 23.358260 26.769984 -0.403388 -0.220843 
-2.961126 14.028904 1.650556 -71.269341 85.145607 -55.439491 15.832006 11.199676 -6.660485 9.074113 26.984537 5.073479 11.385992 -29.547055 -4.643451 4.313603 -11.223277 -41.908444 -11.536127 40.459149 12.214899 -4.796373 -6.728941 11.903613 -53.281340 -67.492740 103.046324 -8.580727 17.917054 -44.046557 -28.766538 -41.425868 33.182623 -54.099145 -17.733681 -27.087287 48.075541 5.893417 4.071118 9.289617 -71.550549 57.689943 50.764701 54.112439 142.996837 37.367307 26.716523 -46.529079 27.961539 -39.246849 -26.040587 -23.449856 0.129191 0.283024 -22.077048 -1.292586 -15.212519 -2.186558 -18.630736 -4.912926 39.549457 19.224552 25.480147 25.527069 -0.371913 -0.179660 
-2.627868 14.081592 1.663784 -76.711693 84.918022 -60.578125 -3.939047 12.850426 1.785126 1.759589 -5.091923 4.698438 6.701414 -33.805775 -3.269139 7.801361 33.949740 27.359342 -2.957379 5.238001 3.948989 -17.820887 -16.821642 14.952524 -44.847004 -40.526151 40.108425 -6.130827 14.850555 -41.135522 -12.825530 -71.549742 81.224159 -15.600118 -6.105544 -20.087654 70.921562 -5.147612 -55.179102 129.472802 -83.052590 -72.206842 -2.171554 17.991637 96.405593 58.245708 20.819222 -58.756762 -1.733103 -18.067999 -0.341749 -21.576200 0.065914 0.249030 -27.843707 2.345004 -4.516592 -72.385047 -86.370630 32.655577 6.339850 4.993861 4.968413 23.294744 -0.320107 -0.134953 
